# xmcd
#
# Track frame offsets:
# 150
# 19375
# 39737
# 58930
# 79500
# 99667
# 125575
# 142800
# 163045
# 183145
# 203370
# 221275
# 243755
# 265142
# 286737
# 305962
#
# Disc length: 4346 seconds
#
#
# Revision: 0
# Processed by: cddbd v1.5.1PL0 Copyright (c) Steve Scherf et al.
# Submitted via: CDLP Version 5
#
DISCID=db10f810
DTITLE=伍代夏子 - 伍代夏子／オリジナル全曲集〜女のひとりごと
DYEAR=1900
DGENRE=Misc
TTITLE0=女のひとりごと
TTITLE1=かりそめ
TTITLE2=一輪ざし
TTITLE3=ガス燈
TTITLE4=愛に燃えて
TTITLE5=歌草子娘道成寺
TTITLE6=恋文
TTITLE7=忍ぶ雨（セリフ入り）
TTITLE8=霞草
TTITLE9=おんな坂
TTITLE10=走馬灯
TTITLE11=花しぐれ
TTITLE12=漁火情話
TTITLE13=待つ女
TTITLE14=女のひとりごと（オリジナル・カラオケ）
TTITLE15=霞草（同）
EXTD=
EXTT0=
EXTT1=
EXTT2=
EXTT3=
EXTT4=
EXTT5=
EXTT6=
EXTT7=
EXTT8=
EXTT9=
EXTT10=
EXTT11=
EXTT12=
EXTT13=
EXTT14=
EXTT15=
PLAYORDER=
